<?xml version="1.0" standalone="no"?>
<!DOCTYPE svg PUBLIC "-//W3C//DTD SVG 20010904//EN"
 "http://www.w3.org/TR/2001/REC-SVG-20010904/DTD/svg10.dtd">
<svg version="1.0" xmlns="http://www.w3.org/2000/svg"
 width="1180.000000pt" height="518.000000pt" viewBox="0 0 1180.000000 518.000000"
 preserveAspectRatio="xMidYMid meet">

<g transform="translate(0.000000,518.000000) scale(0.100000,-0.100000)"
fill="#000000" stroke="none">
<path d="M5120 3676 c0 -10 9 -16 21 -16 24 0 21 23 -4 28 -10 2 -17 -3 -17
-12z"/>
<path d="M5197 3670 c-5 -21 -3 -22 31 -15 57 10 58 20 5 31 -25 5 -31 2 -36
-16z"/>
<path d="M5514 3676 c-18 -14 -18 -15 -1 -21 9 -4 29 -4 43 -1 25 7 26 8 8 21
-24 18 -26 18 -50 1z"/>
<path d="M5600 3676 c0 -10 8 -16 22 -16 12 0 19 1 17 3 -2 1 -12 9 -21 16
-15 12 -18 11 -18 -3z"/>
<path d="M5286 3596 c2 -32 4 -121 4 -197 0 -86 4 -139 10 -139 6 0 10 60 10
160 0 93 -4 160 -9 160 -6 0 -12 17 -14 38 -2 20 -3 10 -1 -22z"/>
<path d="M5622 3621 c-19 -11 -20 -27 -21 -186 -1 -137 -9 -161 -28 -85 -6 24
-16 36 -29 38 -13 2 -26 16 -34 38 -8 19 -20 40 -26 45 -8 6 -10 23 -7 44 4
27 2 34 -16 40 -11 3 -21 11 -21 16 0 5 -7 9 -16 9 -14 0 -15 -49 -12 -467 3
-523 0 -503 75 -523 49 -14 113 -6 113 15 0 7 10 15 21 17 41 6 49 68 48 341
-1 136 1 251 5 254 11 11 7 363 -4 363 -5 0 -10 11 -10 25 0 25 -14 31 -38 16z
m29 -221 c-1 -96 -6 -178 -10 -183 -4 -4 -14 1 -22 10 -11 14 -13 52 -11 186
3 167 3 168 25 165 22 -3 22 -4 18 -178z"/>
<path d="M5092 3143 c2 -338 6 -437 16 -441 7 -2 12 -21 12 -45 0 -42 1 -43
49 -60 68 -24 111 -23 111 3 0 15 7 20 28 20 50 0 52 21 50 515 -2 248 -4 377
-6 288 -1 -97 -6 -163 -12 -163 -6 0 -10 -8 -10 -18 0 -10 -3 -22 -7 -25 -8
-9 -43 48 -43 72 0 10 -6 24 -13 30 -15 12 -11 71 4 71 5 0 9 7 9 15 0 17 -16
20 -25 5 -3 -5 -17 -10 -31 -10 -20 0 -24 5 -24 29 0 16 -6 31 -14 34 -8 3
-16 21 -18 39 -2 23 -10 36 -25 43 -13 5 -23 15 -23 22 0 7 -7 13 -16 13 -14
0 -15 -46 -12 -437z"/>
<path d="M5485 3570 c3 -5 13 -10 21 -10 8 0 14 5 14 10 0 6 -9 10 -21 10 -11
0 -17 -4 -14 -10z"/>
<path d="M6454 2326 c-18 -27 -21 -440 -2 -481 11 -24 28 -34 28 -17 0 5 17
13 38 18 l37 9 0 240 0 240 -43 6 c-36 5 -46 2 -58 -15z"/>
<path d="M5976 2318 c-13 -19 -16 -55 -16 -216 0 -205 6 -239 51 -262 21 -12
281 -11 300 1 6 3 9 28 7 55 l-3 49 -115 5 -115 5 -5 190 -5 190 -42 3 c-33 2
-44 -1 -57 -20z"/>
<path d="M6715 2296 c-12 -78 -2 -433 13 -448 15 -15 232 -22 232 -7 0 5 15 9
33 10 17 0 52 8 76 17 43 17 45 19 58 78 15 66 6 114 -21 114 -8 0 -19 15 -25
32 -10 27 -9 35 4 44 24 18 35 69 23 106 -6 18 -12 39 -14 46 -2 6 -15 12 -29
12 -18 0 -25 5 -25 20 0 19 -7 20 -159 20 l-160 0 -6 -44z m243 -78 c7 -7 12
-25 12 -40 0 -32 -16 -38 -95 -35 -50 2 -50 2 -53 39 -4 41 3 45 79 47 25 0
50 -4 57 -11z m-6 -173 c27 -4 42 -13 51 -32 14 -25 13 -27 -30 -50 -49 -25
-84 -29 -132 -12 -24 9 -31 16 -25 28 3 9 9 25 12 36 9 35 23 46 56 41 17 -3
48 -8 68 -11z"/>
<path d="M6880 1729 c0 -5 5 -7 10 -4 6 3 10 8 10 11 0 2 -4 4 -10 4 -5 0 -10
-5 -10 -11z"/>
<path d="M7040 1729 c0 -5 5 -7 10 -4 6 3 10 8 10 11 0 2 -4 4 -10 4 -5 0 -10
-5 -10 -11z"/>
<path d="M4248 1683 c7 -3 16 -2 19 1 4 3 -2 6 -13 5 -11 0 -14 -3 -6 -6z"/>
<path d="M4378 1683 c7 -3 16 -2 19 1 4 3 -2 6 -13 5 -11 0 -14 -3 -6 -6z"/>
<path d="M4770 1686 c0 -2 7 -6 15 -10 8 -3 15 -1 15 4 0 6 -7 10 -15 10 -8 0
-15 -2 -15 -4z"/>
<path d="M5098 1683 c7 -3 16 -2 19 1 4 3 -2 6 -13 5 -11 0 -14 -3 -6 -6z"/>
<path d="M6008 1683 c7 -3 16 -2 19 1 4 3 -2 6 -13 5 -11 0 -14 -3 -6 -6z"/>
<path d="M6128 1683 c6 -2 18 -2 25 0 6 3 1 5 -13 5 -14 0 -19 -2 -12 -5z"/>
<path d="M6378 1683 c7 -3 16 -2 19 1 4 3 -2 6 -13 5 -11 0 -14 -3 -6 -6z"/>
<path d="M6728 1683 c7 -3 16 -2 19 1 4 3 -2 6 -13 5 -11 0 -14 -3 -6 -6z"/>
<path d="M6848 1683 c6 -2 18 -2 25 0 6 3 1 5 -13 5 -14 0 -19 -2 -12 -5z"/>
<path d="M6182 1640 c10 -16 10 -24 0 -40 -13 -21 -9 -40 9 -40 5 0 9 23 9 50
0 38 -4 50 -15 50 -13 0 -13 -3 -3 -20z"/>
<path d="M6237 1604 c3 -78 13 -82 13 -6 0 34 -3 62 -7 62 -5 0 -7 -25 -6 -56z"/>
<path d="M6415 1650 c3 -5 8 -10 11 -10 2 0 4 5 4 10 0 6 -5 10 -11 10 -5 0
-7 -4 -4 -10z"/>
<path d="M6900 1649 c0 -5 5 -7 10 -4 6 3 10 8 10 11 0 2 -4 4 -10 4 -5 0 -10
-5 -10 -11z"/>
<path d="M5226 1613 c-6 -14 -5 -15 5 -6 7 7 10 15 7 18 -3 3 -9 -2 -12 -12z"/>
<path d="M6120 1620 c0 -5 5 -10 10 -10 6 0 10 5 10 10 0 6 -4 10 -10 10 -5 0
-10 -4 -10 -10z"/>
<path d="M6475 1620 c-3 -5 -1 -10 4 -10 6 0 11 5 11 10 0 6 -2 10 -4 10 -3 0
-8 -4 -11 -10z"/>
<path d="M4452 1595 c0 -16 2 -22 5 -12 2 9 2 23 0 30 -3 6 -5 -1 -5 -18z"/>
<path d="M6360 1600 c0 -11 5 -20 10 -20 6 0 10 9 10 20 0 11 -4 20 -10 20 -5
0 -10 -9 -10 -20z"/>
<path d="M6560 1612 c0 -4 6 -14 13 -21 10 -11 8 -12 -10 -6 -14 4 -23 2 -23
-4 0 -6 11 -11 25 -11 26 0 29 7 19 34 -6 16 -24 22 -24 8z"/>
<path d="M4582 1585 c0 -16 2 -22 5 -12 2 9 2 23 0 30 -3 6 -5 -1 -5 -18z"/>
<path d="M6281 1594 c0 -11 3 -14 6 -6 3 7 2 16 -1 19 -3 4 -6 -2 -5 -13z"/>
<path d="M6626 1595 c-3 -8 -1 -15 4 -15 6 0 10 7 10 15 0 8 -2 15 -4 15 -2 0
-6 -7 -10 -15z"/>
<path d="M7089 1593 c-13 -16 -12 -17 4 -4 16 13 21 21 13 21 -2 0 -10 -8 -17
-17z"/>
<path d="M6050 1590 c0 -5 5 -10 11 -10 5 0 7 5 4 10 -3 6 -8 10 -11 10 -2 0
-4 -4 -4 -10z"/>
<path d="M4401 1574 c0 -11 3 -14 6 -6 3 7 2 16 -1 19 -3 4 -6 -2 -5 -13z"/>
<path d="M4631 1574 c0 -11 3 -14 6 -6 3 7 2 16 -1 19 -3 4 -6 -2 -5 -13z"/>
<path d="M5140 1583 c0 -5 5 -15 10 -23 8 -12 10 -11 10 8 0 12 -4 22 -10 22
-5 0 -10 -3 -10 -7z"/>
<path d="M5305 1570 c3 -5 8 -10 11 -10 2 0 4 5 4 10 0 6 -5 10 -11 10 -5 0
-7 -4 -4 -10z"/>
<path d="M5200 1550 c0 -6 7 -10 15 -10 8 0 15 2 15 4 0 2 -7 6 -15 10 -8 3
-15 1 -15 -4z"/>
<path d="M6380 1549 c0 -5 5 -7 10 -4 6 3 10 8 10 11 0 2 -4 4 -10 4 -5 0 -10
-5 -10 -11z"/>
<path d="M6568 1553 c7 -3 16 -2 19 1 4 3 -2 6 -13 5 -11 0 -14 -3 -6 -6z"/>
<path d="M6294 1533 c10 -11 36 -12 36 -2 0 5 -10 9 -22 9 -12 0 -18 -3 -14
-7z"/>
<path d="M7072 1520 c0 -14 2 -19 5 -12 2 6 2 18 0 25 -3 6 -5 1 -5 -13z"/>
<path d="M4730 1523 c8 -3 18 -11 22 -17 5 -7 8 -4 8 7 0 11 -7 17 -22 16 -16
0 -18 -2 -8 -6z"/>
<path d="M4791 1514 c0 -11 3 -14 6 -6 3 7 2 16 -1 19 -3 4 -6 -2 -5 -13z"/>
<path d="M5130 1515 c0 -8 2 -15 4 -15 2 0 6 7 10 15 3 8 1 15 -4 15 -6 0 -10
-7 -10 -15z"/>
<path d="M6605 1510 c-3 -5 1 -10 10 -10 9 0 13 5 10 10 -3 6 -8 10 -10 10 -2
0 -7 -4 -10 -10z"/>
<path d="M6520 1500 c0 -5 5 -10 11 -10 5 0 7 5 4 10 -3 6 -8 10 -11 10 -2 0
-4 -4 -4 -10z"/>
<path d="M6825 1501 c-3 -5 -1 -12 5 -16 5 -3 10 1 10 9 0 18 -6 21 -15 7z"/>
<path d="M4698 1493 c6 -2 18 -2 25 0 6 3 1 5 -13 5 -14 0 -19 -2 -12 -5z"/>
<path d="M6282 1475 c0 -16 2 -22 5 -12 2 9 2 23 0 30 -3 6 -5 -1 -5 -18z"/>
<path d="M4785 1470 c3 -5 8 -10 11 -10 2 0 4 5 4 10 0 6 -5 10 -11 10 -5 0
-7 -4 -4 -10z"/>
<path d="M4240 1460 c0 -5 5 -10 11 -10 5 0 7 5 4 10 -3 6 -8 10 -11 10 -2 0
-4 -4 -4 -10z"/>
<path d="M6000 1460 c0 -5 5 -10 11 -10 5 0 7 5 4 10 -3 6 -8 10 -11 10 -2 0
-4 -4 -4 -10z"/>
<path d="M6241 1454 c0 -11 3 -14 6 -6 3 7 2 16 -1 19 -3 4 -6 -2 -5 -13z"/>
<path d="M4320 1450 c0 -13 20 -13 40 0 12 8 9 10 -12 10 -16 0 -28 -4 -28
-10z"/>
<path d="M5380 1450 c0 -5 7 -10 16 -10 8 0 12 5 9 10 -3 6 -10 10 -16 10 -5
0 -9 -4 -9 -10z"/>
<path d="M6770 1440 c0 -11 4 -20 9 -20 5 0 7 9 4 20 -3 11 -7 20 -9 20 -2 0
-4 -9 -4 -20z"/>
<path d="M5710 1439 c0 -5 5 -7 10 -4 6 3 10 8 10 11 0 2 -4 4 -10 4 -5 0 -10
-5 -10 -11z"/>
</g>
</svg>
