<?xml version="1.0" standalone="no"?>
<!DOCTYPE svg PUBLIC "-//W3C//DTD SVG 20010904//EN"
 "http://www.w3.org/TR/2001/REC-SVG-20010904/DTD/svg10.dtd">
<svg version="1.0" xmlns="http://www.w3.org/2000/svg"
 width="1180.000000pt" height="518.000000pt" viewBox="0 0 1180.000000 518.000000"
 preserveAspectRatio="xMidYMid meet">

<g transform="translate(0.000000,518.000000) scale(0.100000,-0.100000)"
fill="#000000" stroke="none">
<path d="M5317 3119 c-12 -7 -16 -47 -8 -91 0 -4 27 -6 59 -5 l57 2 3 39 c2
21 -2 44 -8 50 -13 13 -82 16 -103 5z"/>
<path d="M4820 3110 c0 -6 4 -18 9 -28 5 -9 17 -55 26 -102 9 -47 21 -105 25
-130 5 -25 11 -54 14 -65 10 -36 37 -158 55 -240 l17 -80 82 -3 c45 -2 82 -1
82 0 0 2 11 53 25 113 14 61 32 142 40 180 8 39 26 119 40 180 14 60 25 120
25 132 0 12 5 25 10 28 26 16 4 25 -58 25 l-68 0 -17 -102 c-16 -98 -31 -176
-56 -298 -15 -71 -28 -83 -36 -34 -3 22 -10 57 -15 79 -5 22 -12 60 -15 85 -4
25 -11 61 -15 80 -5 19 -15 70 -21 113 l-13 77 -68 0 c-39 0 -68 -4 -68 -10z"/>
<path d="M6222 2793 l3 -328 58 -3 57 -3 0 321 c0 176 1 323 3 328 1 4 -26 8
-61 10 l-62 3 2 -328z"/>
<path d="M6591 3103 c-27 -5 -38 -14 -87 -61 -25 -24 -34 -42 -36 -70 -3 -57
3 -107 12 -110 4 -2 6 -12 3 -22 -3 -11 0 -20 6 -20 6 0 20 -9 30 -19 11 -11
52 -31 92 -46 84 -30 112 -54 128 -110 14 -52 15 -48 -11 -77 -46 -52 -98 -62
-142 -27 -21 17 -26 29 -26 65 0 43 0 44 -34 44 -69 0 -76 -12 -55 -96 6 -24
17 -44 24 -44 7 0 18 -7 25 -15 7 -8 22 -15 33 -15 11 0 36 -5 54 -12 26 -10
41 -9 71 2 20 7 47 14 59 16 11 1 30 11 41 22 11 11 27 24 35 28 11 6 18 32
23 78 6 60 4 74 -17 117 -14 29 -31 49 -41 49 -9 0 -29 7 -45 15 -15 8 -43 20
-60 27 -18 7 -33 19 -33 25 0 7 -11 13 -23 13 -37 0 -55 29 -55 85 -1 66 25
95 82 95 55 0 67 -10 73 -59 l6 -41 49 0 c47 0 50 1 44 23 -4 12 -9 34 -12 50
-4 15 -9 27 -13 27 -4 0 -21 13 -39 29 -24 23 -44 31 -84 34 -29 3 -64 3 -77
0z m-31 -73 c0 -5 -5 -10 -11 -10 -5 0 -7 5 -4 10 3 6 8 10 11 10 2 0 4 -4 4
-10z"/>
<path d="M5548 3028 c-2 -49 -7 -73 -15 -74 -7 -1 -22 -2 -33 -3 -16 -1 -20
-8 -20 -36 0 -28 4 -35 19 -35 51 0 51 0 51 -192 0 -99 4 -188 10 -198 12 -23
94 -42 140 -32 32 7 35 11 38 45 3 35 2 37 -27 37 -40 0 -42 11 -39 190 l3
145 33 3 c29 3 32 6 32 38 0 32 -2 34 -35 34 -33 0 -35 2 -36 33 0 17 -1 50
-2 72 l-2 40 -57 3 -57 3 -3 -73z"/>
<path d="M8900 2986 c0 -20 4 -23 23 -18 18 5 19 7 5 10 -10 2 -18 7 -18 12 0
5 8 11 18 13 13 4 11 5 -5 6 -18 1 -23 -4 -23 -23z"/>
<path d="M5865 2956 c-47 -22 -67 -51 -73 -105 l-4 -49 48 2 c45 2 49 5 56 33
11 43 56 61 93 37 21 -14 25 -23 23 -53 -3 -30 -9 -39 -38 -52 -19 -10 -38
-15 -42 -13 -4 3 -15 1 -25 -4 -10 -5 -35 -17 -56 -26 -51 -22 -77 -67 -77
-136 0 -60 23 -110 61 -130 34 -19 125 -8 152 18 28 27 39 28 35 5 -3 -16 5
-18 57 -18 49 0 59 3 55 15 -3 8 -7 105 -10 215 -5 209 -9 227 -54 255 -30 19
-164 23 -201 6z m143 -321 c-3 -52 -8 -68 -27 -85 -40 -34 -75 -24 -91 26 -12
37 2 81 30 94 8 4 24 12 35 18 11 6 28 11 39 11 16 1 18 -6 14 -64z"/>
<path d="M5302 2708 l3 -243 60 0 60 0 5 243 5 242 -68 0 -68 0 3 -242z"/>
<path d="M7050 2941 c-30 -8 -90 -43 -90 -53 0 -4 -8 -14 -17 -24 -16 -15 -18
-38 -18 -165 0 -142 1 -148 24 -173 14 -14 30 -26 36 -26 7 0 20 -9 29 -19 14
-16 28 -19 69 -16 89 6 113 20 144 83 20 40 29 76 32 126 6 106 -29 230 -68
243 -9 3 -30 11 -48 19 -33 15 -52 16 -93 5z m64 -66 c8 -8 19 -15 24 -15 5 0
12 -28 16 -61 19 -184 -5 -278 -71 -279 -54 0 -84 111 -68 254 5 52 12 72 31
91 29 29 46 31 68 10z m73 -87 c-3 -8 -6 -5 -6 6 -1 11 2 17 5 13 3 -3 4 -12
1 -19z m-197 -183 c0 -8 -2 -15 -4 -15 -2 0 -6 7 -10 15 -3 8 -1 15 4 15 6 0
10 -7 10 -15z"/>
<path d="M8198 2943 c-21 -2 -38 -9 -38 -15 0 -5 -11 -23 -25 -40 -14 -16 -25
-36 -25 -43 0 -7 -7 -21 -16 -30 -13 -13 -16 -36 -16 -116 1 -56 5 -106 10
-112 5 -7 12 -23 15 -37 4 -14 20 -39 37 -55 29 -28 37 -30 101 -29 39 0 73 5
77 10 4 6 15 14 25 17 11 4 21 16 24 27 3 11 12 20 19 20 9 0 14 11 14 29 0
16 3 36 6 45 5 13 -2 16 -39 16 l-45 0 -6 -45 c-4 -25 -12 -45 -17 -45 -6 0
-7 -4 -4 -10 4 -6 -14 -10 -47 -10 l-53 0 -13 40 c-16 51 -16 229 1 281 l12
40 55 -3 55 -3 9 -47 9 -48 45 0 44 0 -7 37 c-4 21 -10 40 -14 43 -5 3 -13 15
-20 28 -6 12 -21 22 -31 22 -11 0 -20 7 -20 15 0 8 -6 15 -14 15 -7 0 -26 2
-42 4 -16 2 -46 1 -66 -1z m-41 -395 c-3 -8 -6 -5 -6 6 -1 11 2 17 5 13 3 -3
4 -12 1 -19z"/>
<path d="M8608 2941 c-23 -5 -46 -18 -59 -34 -11 -15 -27 -33 -34 -41 -8 -7
-15 -32 -17 -55 -1 -23 -6 -45 -10 -47 -4 -3 -8 -32 -8 -64 0 -32 4 -61 8 -64
4 -2 9 -24 11 -48 4 -71 74 -128 156 -128 63 0 137 43 120 70 -3 5 1 10 9 10
9 0 16 8 16 18 0 9 3 26 6 37 5 18 1 20 -40 17 -44 -4 -46 -6 -46 -34 0 -18
-8 -37 -17 -44 -25 -19 -88 -17 -104 2 -14 17 -30 129 -22 151 4 10 33 13 123
13 l118 0 -3 43 c-7 107 -16 128 -78 183 -18 16 -85 24 -129 15z m98 -74 c3
-3 8 -30 11 -61 l6 -56 -73 0 c-70 0 -72 1 -66 23 3 12 6 34 6 48 0 14 9 35
20 46 16 18 25 20 55 13 20 -5 39 -10 41 -13z m29 3 c3 -5 1 -10 -4 -10 -6 0
-11 5 -11 10 0 6 2 10 4 10 3 0 8 -4 11 -10z"/>
<path d="M4458 2933 c7 -3 16 -2 19 1 4 3 -2 6 -13 5 -11 0 -14 -3 -6 -6z"/>
<path d="M7360 2734 l0 -206 34 -34 c34 -34 78 -45 91 -24 3 6 17 10 29 10 13
0 30 9 37 21 18 26 53 16 44 -12 -6 -17 -1 -19 39 -19 l46 0 0 235 0 235 -46
0 -45 0 2 -185 c2 -206 -1 -217 -63 -230 -24 -6 -35 -2 -55 18 l-25 25 1 186
2 186 -45 0 -46 0 0 -206z"/>
<path d="M7791 2714 l1 -225 25 -10 c13 -5 35 -9 47 -9 20 0 23 5 23 33 -1 17
0 96 1 174 2 160 3 161 87 172 39 6 40 7 43 49 3 38 1 42 -20 42 -13 0 -36
-12 -51 -26 -24 -20 -27 -27 -17 -39 9 -11 9 -15 1 -15 -6 0 -11 4 -11 9 0 5
-9 11 -20 14 -13 3 -20 14 -20 30 0 22 -4 25 -45 25 l-46 1 2 -225z"/>
<path d="M4320 2849 c0 -5 5 -7 10 -4 6 3 10 8 10 11 0 2 -4 4 -10 4 -5 0 -10
-5 -10 -11z"/>
<path d="M3665 2530 c3 -5 8 -10 11 -10 2 0 4 5 4 10 0 6 -5 10 -11 10 -5 0
-7 -4 -4 -10z"/>
<path d="M4120 2409 c0 -5 5 -7 10 -4 6 3 10 8 10 11 0 2 -4 4 -10 4 -5 0 -10
-5 -10 -11z"/>
</g>
</svg>
