<?xml version="1.0" standalone="no"?>
<!DOCTYPE svg PUBLIC "-//W3C//DTD SVG 20010904//EN"
 "http://www.w3.org/TR/2001/REC-SVG-20010904/DTD/svg10.dtd">
<svg version="1.0" xmlns="http://www.w3.org/2000/svg"
 width="1180.000000pt" height="518.000000pt" viewBox="0 0 1180.000000 518.000000"
 preserveAspectRatio="xMidYMid meet">

<g transform="translate(0.000000,518.000000) scale(0.100000,-0.100000)"
fill="#000000" stroke="none">
<path d="M4064 4676 c-19 -14 -19 -43 -22 -1558 -2 -1074 0 -1554 8 -1580 12
-44 13 -44 245 -53 403 -16 817 -88 1125 -196 146 -52 151 -53 172 -37 16 12
18 103 20 1420 2 1229 1 1410 -12 1422 -8 8 -80 39 -160 70 -80 31 -170 67
-200 80 -30 13 -116 47 -190 76 -74 29 -182 72 -240 96 -58 23 -170 68 -250
99 -80 31 -165 64 -190 75 -104 45 -252 100 -268 100 -10 0 -27 -6 -38 -14z"/>
<path d="M7345 4660 c-38 -16 -304 -122 -590 -235 -286 -113 -536 -213 -555
-221 -19 -9 -70 -29 -112 -45 -43 -15 -95 -38 -118 -49 l-40 -20 0 -1415 0
-1415 24 -11 c25 -12 36 -9 166 41 52 19 96 32 273 79 219 59 572 106 862 117
94 3 184 10 201 15 30 9 32 13 37 72 9 101 3 3091 -6 3105 -13 20 -67 13 -142
-18z"/>
<path d="M8330 4201 c0 -20 -1 -21 -16 -7 -8 9 -22 16 -29 16 -14 0 -302 -86
-422 -126 -39 -13 -76 -24 -83 -24 -6 0 -22 -10 -35 -23 l-25 -22 -2 -1347
c-3 -1308 -4 -1347 -22 -1367 -18 -20 -29 -21 -186 -21 -282 0 -647 -32 -875
-76 -165 -32 -390 -91 -440 -114 -11 -6 -51 -21 -90 -35 -68 -25 -255 -114
-265 -126 -3 -3 -20 -14 -38 -23 -33 -17 -35 -17 -71 7 -21 14 -75 44 -121 67
-246 124 -523 199 -965 265 -94 13 -473 35 -631 35 -147 0 -173 2 -178 16 -3
9 -6 627 -6 1374 l0 1358 -23 15 c-13 8 -44 21 -68 27 -24 6 -62 17 -84 25
-22 7 -78 24 -125 38 -47 14 -124 37 -171 51 -73 22 -91 25 -115 15 -16 -7
-32 -12 -37 -11 -4 1 -7 -741 -7 -1648 0 -907 3 -1649 8 -1648 4 1 16 -3 27
-9 14 -7 77 -6 225 4 229 16 855 12 995 -6 173 -23 243 -33 315 -47 174 -35
260 -56 335 -85 44 -17 94 -36 110 -42 28 -10 288 -135 327 -157 10 -6 24 -10
31 -10 7 0 33 -10 58 -22 29 -14 70 -23 119 -26 96 -6 175 20 397 129 196 95
309 138 468 178 304 75 558 101 1000 101 262 0 501 -10 627 -26 38 -5 50 -2
67 15 l21 21 0 -21 c0 -11 4 -18 9 -15 5 4 12 0 14 -6 3 -7 6 739 6 1658 1
1474 -1 1673 -14 1684 -13 10 -15 9 -15 -9z"/>
</g>
</svg>
