<?xml version="1.0" standalone="no"?>
<!DOCTYPE svg PUBLIC "-//W3C//DTD SVG 20010904//EN"
 "http://www.w3.org/TR/2001/REC-SVG-20010904/DTD/svg10.dtd">
<svg version="1.0" xmlns="http://www.w3.org/2000/svg"
 width="1180.000000pt" height="518.000000pt" viewBox="0 0 1180.000000 518.000000"
 preserveAspectRatio="xMidYMid meet">

<g transform="translate(0.000000,518.000000) scale(0.100000,-0.100000)"
fill="#000000" stroke="none">
<path d="M0 2590 l0 -2590 5900 0 5900 0 0 2590 0 2590 -5900 0 -5900 0 0
-2590z m2185 1115 c28 -4 55 -11 60 -15 6 -5 27 -11 48 -15 20 -4 40 -11 43
-16 3 -5 12 -9 20 -9 15 0 185 -78 194 -89 3 -4 25 -19 48 -34 57 -37 93 -68
170 -147 79 -80 82 -85 118 -140 16 -25 31 -47 34 -50 11 -10 90 -179 90 -192
0 -8 4 -18 8 -24 11 -11 31 -83 45 -154 14 -74 13 -361 -1 -430 -16 -77 -36
-148 -45 -156 -4 -4 -7 -14 -7 -21 0 -23 -88 -192 -116 -224 -8 -8 -14 -21
-14 -27 0 -11 -204 -221 -245 -252 -91 -69 -268 -153 -400 -189 -59 -16 -187
-31 -268 -31 -87 0 -249 19 -262 31 -5 5 -18 9 -30 9 -55 1 -281 102 -339 152
-11 10 -23 18 -27 18 -4 0 -21 13 -37 30 -17 16 -33 30 -36 30 -7 0 -116 110
-116 117 0 3 -13 18 -30 35 -16 16 -30 33 -30 37 0 4 -8 16 -17 27 -10 11 -23
29 -29 40 -59 106 -74 135 -74 148 0 9 -3 16 -7 16 -5 0 -16 28 -26 63 -11 34
-23 73 -27 87 -5 14 -17 81 -26 150 -16 118 -16 133 0 250 9 69 22 141 28 160
27 89 42 129 64 178 13 29 24 57 24 62 0 6 4 10 9 10 5 0 12 11 15 25 4 14 11
25 16 25 6 0 10 7 10 15 0 8 4 15 8 15 5 0 14 10 19 23 36 74 279 307 322 307
5 0 11 4 13 8 5 13 169 90 228 107 30 9 65 21 78 26 13 5 37 9 55 10 18 0 41
4 52 9 21 10 307 6 390 -5z m3063 -774 c2 -293 -1 -376 -10 -383 -7 -4 -30 -8
-50 -8 l-38 0 0 386 0 385 48 -3 47 -3 3 -374z m1615 340 c53 -23 62 -34 47
-61 -11 -21 -54 -28 -65 -10 -9 14 -107 12 -125 -3 -8 -7 -21 -23 -28 -37 -21
-42 8 -93 113 -195 227 -222 228 -222 224 -112 -2 72 -2 72 25 75 44 5 58 -14
54 -72 -3 -28 -11 -72 -18 -98 -14 -46 -13 -46 16 -71 16 -14 45 -39 64 -56
19 -17 38 -31 43 -31 20 0 3 -33 -23 -43 -16 -6 -30 -15 -30 -19 0 -12 -20 -9
-34 5 -42 40 -96 87 -101 87 -3 0 -26 -15 -53 -34 -26 -19 -67 -41 -92 -50
-50 -18 -175 -22 -185 -6 -3 6 -17 10 -30 10 -16 0 -43 19 -79 53 -46 45 -55
61 -61 101 -15 95 19 170 101 226 l46 32 -25 27 c-38 40 -67 98 -67 135 0 122
154 202 283 147z m3133 -6 c14 -21 15 -30 5 -48 -20 -38 -49 -50 -82 -37 -25
11 -29 18 -29 49 0 46 14 61 57 61 24 0 37 -7 49 -25z m-2168 -21 c3 -27 -1
-33 -25 -39 -15 -3 -73 -5 -128 -4 l-100 3 -3 -137 -3 -137 126 0 126 0 -3
-37 -3 -38 -122 -3 -123 -3 0 -149 0 -150 -55 0 -55 0 0 358 c0 197 3 362 7
366 4 3 86 5 182 4 l176 -3 3 -31z m-3678 -8 c0 -43 -8 -46 -131 -46 l-99 0
-2 -322 -3 -323 -50 0 -50 0 -5 324 -5 325 -103 -3 c-114 -3 -132 4 -132 50
l0 29 290 0 290 0 0 -34z m226 -168 c112 -30 132 -88 135 -388 l1 -135 -27 -3
c-51 -6 -73 5 -77 40 l-3 32 -25 -25 c-75 -75 -187 -80 -259 -11 -19 18 -33
88 -25 130 10 60 43 104 99 134 61 32 165 68 197 68 25 0 23 27 -8 67 -24 31
-28 33 -90 33 -35 0 -64 -4 -64 -9 0 -5 -11 -12 -25 -15 -14 -4 -25 -11 -25
-16 0 -27 -49 8 -50 35 0 14 56 48 105 62 54 15 86 15 141 1z m1309 -1 c100
-31 152 -84 184 -186 27 -84 0 -203 -62 -274 -69 -78 -208 -102 -301 -53 -54
29 -65 39 -98 91 -78 127 -47 311 67 386 72 47 139 58 210 36z m546 -9 c44
-24 48 -42 18 -77 -17 -21 -23 -23 -40 -13 -26 17 -77 15 -95 -3 -29 -29 -44
-121 -44 -276 l0 -150 -42 3 -43 3 -3 258 -2 257 45 0 c41 0 45 -2 45 -25 0
-31 5 -31 33 -2 26 27 56 46 76 47 7 0 31 -10 52 -22z m1977 2 c37 -23 40 -38
13 -69 -18 -21 -23 -22 -56 -11 -20 7 -46 9 -58 6 -45 -11 -52 -39 -57 -241
l-5 -190 -47 -3 -48 -3 0 261 0 261 47 -3 c44 -3 48 -5 54 -33 4 -16 7 -25 8
-19 0 6 13 23 27 38 32 32 76 34 122 6z m376 -1 c76 -35 80 -48 88 -259 3
-102 10 -200 13 -217 l7 -33 -49 0 c-46 0 -49 2 -61 32 l-12 32 -30 -29 c-55
-52 -131 -68 -191 -38 -42 21 -52 31 -73 70 -42 82 3 174 111 223 26 12 55 26
63 30 9 4 34 11 56 14 59 10 68 18 60 59 -10 54 -37 72 -108 71 -33 0 -63 -5
-66 -11 -4 -6 -17 -13 -29 -17 -13 -4 -23 -12 -23 -17 0 -6 -7 -4 -15 5 -34
34 -6 67 85 99 38 14 132 6 174 -14z m583 9 c86 -38 103 -94 103 -343 l0 -175
-50 0 -50 0 0 182 c0 112 -4 194 -12 214 -15 42 -55 64 -115 64 -39 0 -56 -6
-81 -27 -44 -37 -51 -75 -52 -270 l0 -163 -50 0 -50 0 2 258 3 257 45 0 c42 0
45 -2 48 -28 3 -27 5 -28 21 -13 56 51 173 72 238 44z m564 1 c55 -19 63 -31
40 -60 -17 -21 -22 -22 -40 -11 -31 18 -136 15 -169 -5 -68 -44 -85 -80 -85
-183 0 -75 3 -90 26 -127 38 -60 94 -87 165 -80 30 3 60 11 65 16 19 19 54 13
60 -11 8 -27 -12 -43 -82 -64 -90 -26 -182 -8 -246 48 -71 63 -89 106 -90 213
0 98 12 135 62 191 50 55 112 81 199 83 34 0 76 -4 95 -10z m658 -7 c41 -20
46 -31 27 -57 -13 -17 -17 -18 -40 -6 -14 8 -47 14 -72 14 -37 0 -50 -4 -64
-24 -27 -35 -6 -67 85 -134 83 -61 125 -118 125 -171 0 -38 -43 -107 -77 -123
-15 -7 -36 -17 -45 -22 -22 -11 -93 -12 -116 0 -9 4 -34 16 -56 27 -47 23 -55
40 -28 66 l20 20 38 -26 c51 -35 104 -35 139 -1 14 14 25 35 25 46 0 22 -30
79 -41 79 -4 0 -25 15 -47 33 -21 17 -50 41 -64 52 -41 34 -58 67 -58 115 0
49 31 95 80 117 37 17 130 15 169 -5z m-5709 -43 c19 -51 37 -96 49 -124 22
-49 40 -94 62 -152 18 -48 26 -59 36 -51 7 6 13 15 13 20 0 6 7 26 16 46 9 21
20 46 24 57 26 61 42 98 54 128 8 17 24 54 35 80 20 47 22 48 53 42 18 -4 36
-10 39 -14 4 -3 -4 -31 -18 -61 -78 -170 -79 -172 -116 -260 -9 -19 -30 -66
-47 -105 -35 -77 -49 -108 -78 -175 -50 -111 -129 -175 -209 -168 -35 3 -38 5
-38 33 0 28 3 30 40 33 22 2 42 7 45 10 3 4 13 12 24 17 10 6 28 28 40 50 11
22 23 42 26 45 12 12 40 82 40 100 0 10 -14 49 -31 87 -43 95 -68 152 -86 193
-23 53 -64 143 -74 162 -14 27 0 46 34 51 48 6 50 4 67 -44z m5310 -210 l0
-260 -47 3 -48 3 -3 245 c-1 134 0 250 3 257 2 8 22 13 50 13 l45 0 0 -261z
m-5542 -779 c1 -96 0 -185 -3 -197 -6 -24 -29 -31 -40 -13 -9 15 -10 364 -1
379 4 6 15 11 24 9 15 -3 17 -25 20 -178z m824 154 c5 -3 8 -14 8 -24 0 -17
-3 -18 -31 -8 -42 14 -79 -3 -79 -36 0 -18 21 -46 75 -98 42 -40 81 -73 88
-73 7 0 11 13 11 33 -2 26 2 32 18 32 19 0 20 -5 15 -54 -5 -49 -3 -55 22 -77
40 -35 44 -47 22 -58 -14 -8 -23 -8 -33 2 -40 38 -44 38 -89 12 -72 -41 -138
-31 -191 28 -10 11 -20 28 -24 39 -8 25 14 78 43 103 27 24 29 38 8 55 -16 13
-20 76 -7 97 16 25 67 44 102 37 19 -3 38 -8 42 -10z m1566 7 c20 -12 10 -46
-14 -49 -23 -3 -37 18 -28 43 7 17 22 19 42 6z m-2943 -21 c0 -11 -14 -16 -55
-18 -30 -2 -58 -9 -62 -15 -5 -7 -8 -75 -7 -152 1 -190 3 -177 -23 -173 -23 3
-23 5 -26 171 l-2 167 -55 0 c-29 0 -57 5 -60 10 -16 25 11 30 148 28 118 -3
142 -6 142 -18z m1845 0 c0 -18 -7 -20 -65 -20 l-65 0 0 -65 c0 -36 1 -65 3
-66 1 0 29 -3 61 -5 67 -5 71 -7 63 -29 -5 -11 -22 -15 -67 -15 l-60 0 0 -75
c0 -73 -1 -75 -25 -75 l-25 0 0 185 0 185 90 0 c83 0 90 -1 90 -20z m1755 10
c3 -5 15 -10 26 -10 14 0 19 -5 17 -17 -2 -12 -11 -17 -23 -14 -55 11 -162 5
-176 -9 -40 -40 -49 -65 -49 -131 0 -63 2 -70 34 -102 37 -39 103 -55 149 -38
25 10 27 15 27 71 0 57 1 60 25 60 24 0 25 -2 25 -75 0 -89 -7 -95 -110 -103
-50 -3 -75 0 -101 13 -88 44 -130 127 -109 214 22 93 96 149 197 150 34 1 65
-3 68 -9z m-3462 -114 c31 -29 39 -67 35 -170 -3 -83 -13 -100 -42 -70 -15 15
-19 15 -41 0 -37 -24 -78 -20 -109 10 -14 15 -26 35 -26 45 0 44 63 108 108
109 9 1 28 7 41 14 l24 13 -23 23 c-15 15 -29 20 -43 16 -60 -17 -77 -18 -77
-5 0 20 38 36 86 38 31 1 48 -5 67 -23z m129 -8 c29 -60 48 -106 48 -120 0 -7
7 -21 14 -31 14 -17 15 -17 21 5 4 13 19 48 32 78 14 30 29 65 34 78 10 25 22
28 37 10 7 -9 1 -31 -19 -73 -15 -33 -37 -82 -49 -110 -43 -97 -84 -175 -99
-189 -9 -8 -31 -17 -48 -21 -28 -6 -33 -4 -33 13 0 13 10 22 31 28 23 7 38 22
57 58 24 46 25 50 10 80 -28 56 -48 104 -48 115 0 6 -4 11 -10 11 -5 0 -10 7
-10 15 0 8 -5 24 -12 34 -9 15 -9 23 1 35 19 22 24 20 43 -16z m556 -6 c40
-40 55 -81 46 -123 -29 -126 -155 -161 -236 -64 -24 28 -24 142 0 170 31 36
66 54 110 54 36 1 48 -5 80 -37z m142 28 c0 -5 7 -10 15 -10 8 0 15 5 15 10 0
14 42 12 61 -3 24 -18 11 -37 -25 -37 -50 0 -56 -13 -56 -121 0 -79 -3 -98
-16 -103 -9 -3 -20 -4 -25 0 -5 3 -9 66 -9 140 0 127 1 134 20 134 11 0 20 -4
20 -10z m990 0 c0 -5 7 -10 15 -10 8 0 15 5 15 10 0 15 57 12 63 -3 8 -22 -6
-35 -43 -39 l-35 -3 -5 -105 c-5 -100 -6 -105 -27 -108 -23 -3 -23 -3 -23 132
0 129 1 136 20 136 11 0 20 -4 20 -10z m297 -12 c19 -20 22 -37 24 -130 1 -59
0 -111 -4 -115 -4 -3 -18 -1 -31 7 -20 10 -28 10 -47 -4 -69 -48 -150 22 -114
98 15 31 53 53 115 66 31 6 38 37 13 55 -21 17 -59 19 -68 5 -9 -14 -45 -13
-45 1 0 22 36 38 86 39 40 0 55 -5 71 -22z m146 10 c3 -10 9 -10 26 0 31 18
102 15 128 -7 20 -17 22 -29 25 -132 l3 -114 -25 0 c-28 0 -27 -4 -29 122 -1
90 -1 91 -28 100 -75 24 -103 -14 -103 -142 0 -84 -1 -86 -22 -83 -22 3 -23 7
-26 136 l-3 132 25 0 c13 0 26 -6 29 -12z m435 -12 c4 -16 0 -18 -32 -12 -62
12 -115 -32 -116 -95 0 -80 43 -116 124 -104 54 8 62 -6 16 -30 -59 -30 -115
-16 -167 44 -18 21 -23 38 -23 84 0 53 3 60 40 97 39 39 43 41 98 38 46 -2 57
-6 60 -22z m117 -111 c0 -127 0 -130 -22 -133 -23 -3 -23 -3 -23 133 0 136 0
136 23 133 22 -3 22 -6 22 -133z m213 111 c3 -16 -1 -17 -35 -11 -30 5 -43 2
-53 -10 -11 -13 -4 -24 49 -74 33 -33 61 -68 61 -79 0 -25 -45 -70 -78 -79
-31 -7 -71 6 -86 29 -15 25 -5 29 37 16 34 -10 40 -9 58 9 l21 20 -61 61 c-34
33 -61 66 -61 74 0 9 12 27 27 42 22 23 34 26 72 24 35 -2 47 -7 49 -22z m606
9 c13 -13 16 -13 30 0 18 18 35 19 59 1 34 -26 21 -41 -31 -36 -40 3 -51 -26
-52 -127 0 -92 0 -93 -25 -93 l-25 0 0 129 c0 94 3 131 13 134 6 3 13 6 14 6
1 1 8 -6 17 -14z m299 3 c39 -23 67 -51 67 -69 0 -10 5 -21 10 -24 6 -3 10
-19 10 -35 0 -16 -4 -32 -10 -35 -5 -3 -10 -14 -10 -24 0 -9 -14 -30 -31 -47
-26 -25 -38 -29 -84 -29 -45 0 -58 4 -83 28 -70 67 -55 187 27 231 34 18 76
19 104 4z m620 1 c57 -30 86 -105 65 -167 -28 -83 -97 -120 -164 -88 -19 9
-37 16 -39 16 -3 0 -5 -34 -5 -75 0 -68 -2 -75 -20 -75 -15 0 -20 7 -20 28 -6
361 -6 352 14 358 10 3 22 1 26 -6 6 -9 14 -9 36 3 36 18 78 21 107 6z m-431
-104 c3 -118 10 -129 67 -121 51 8 60 28 61 134 0 91 0 92 25 92 l25 0 0 -129
c0 -104 -3 -130 -15 -135 -8 -3 -21 2 -29 10 -14 13 -18 13 -41 -2 -18 -11
-38 -15 -65 -11 -65 8 -74 26 -78 139 -4 111 -1 128 27 128 18 0 19 -9 23
-105z"/>
<path d="M1825 3610 c-11 -5 -33 -9 -50 -9 -32 -1 -140 -32 -151 -44 -4 -4
-14 -7 -23 -7 -17 0 -144 -61 -149 -72 -2 -5 -8 -8 -13 -8 -23 0 -239 -177
-239 -196 0 -3 -5 -10 -10 -17 -44 -51 -56 -68 -84 -112 -127 -199 -179 -443
-146 -678 16 -108 33 -167 86 -285 13 -29 24 -54 24 -56 0 -6 68 -107 98 -146
113 -145 302 -278 472 -333 97 -31 119 -36 221 -47 183 -20 367 11 529 88 55
26 150 81 160 92 3 3 23 18 45 35 61 45 185 175 185 194 0 5 3 11 8 13 18 8
99 156 132 243 11 27 37 131 47 180 11 61 8 273 -5 340 -29 147 -61 230 -141
359 -141 230 -399 409 -661 458 -74 14 -310 20 -335 8z m218 -638 c-44 -74
-49 -84 -63 -139 -8 -29 -18 -53 -23 -53 -22 0 -46 47 -47 91 0 42 4 51 43 88
46 46 110 84 115 70 2 -5 -9 -31 -25 -57z m-749 -44 c2 -7 11 -39 21 -70 21
-71 24 -161 6 -182 -21 -25 -68 -20 -87 9 -13 20 -15 38 -10 83 4 31 11 61 16
66 6 6 10 19 10 31 0 25 22 75 33 75 4 0 9 -6 11 -12z m1046 -216 c0 -41 -11
-42 -367 -42 -328 0 -343 1 -353 19 -5 11 -10 24 -10 30 0 8 113 11 365 11
345 0 365 -1 365 -18z m-38 -87 c-2 -11 -9 -23 -15 -27 -7 -4 -146 -8 -309 -8
-256 0 -299 2 -312 16 -9 8 -16 22 -16 30 0 12 48 14 328 12 321 -3 327 -3
324 -23z m478 -2 c0 -13 -34 -108 -41 -113 -3 -3 -9 -14 -13 -26 -10 -33 -86
-110 -136 -137 -25 -14 -72 -28 -105 -32 -59 -7 -87 -19 -118 -49 -28 -28
-161 -92 -229 -111 -53 -14 -92 -17 -195 -13 -73 3 -141 10 -158 18 -16 7 -54
23 -83 36 -29 13 -57 24 -62 24 -6 0 -10 4 -10 9 0 5 -9 12 -20 16 -27 9 -138
121 -180 183 l-35 51 -93 3 -94 3 -15 37 c-13 33 -13 38 4 57 15 18 29 21 90
21 54 0 74 -4 81 -15 7 -14 79 -15 625 -13 476 2 619 6 629 16 6 6 23 12 38
13 14 0 41 7 60 14 41 16 60 18 60 8z"/>
<path d="M2660 2553 c-14 -3 -29 -9 -34 -14 -6 -5 -20 -9 -31 -9 -16 0 -29
-15 -50 -55 -16 -30 -32 -55 -36 -55 -3 0 -11 -11 -17 -25 -10 -22 -9 -25 9
-25 25 0 86 31 120 62 44 39 96 131 72 127 -5 -1 -19 -4 -33 -6z"/>
<path d="M6685 2882 c-69 -63 -74 -145 -14 -229 40 -56 139 -68 219 -25 80 41
82 50 19 111 -61 60 -179 165 -188 168 -3 1 -19 -10 -36 -25z"/>
<path d="M4370 2832 c-110 -9 -193 -90 -175 -171 7 -32 42 -61 75 -61 22 0 77
25 95 44 26 27 46 94 43 141 l-3 50 -35 -3z"/>
<path d="M5526 2966 c-38 -38 -45 -51 -51 -100 -8 -64 2 -186 16 -186 5 0 9
-7 9 -14 0 -8 15 -26 33 -40 63 -48 177 -30 208 33 36 74 46 149 27 215 -24
86 -83 136 -158 136 -35 0 -47 -6 -84 -44z"/>
<path d="M8500 2820 c-8 -4 -30 -14 -47 -20 -38 -14 -73 -42 -73 -59 0 -6 -4
-11 -10 -11 -21 0 -10 -67 15 -94 31 -33 79 -35 126 -3 43 29 62 67 67 140 l4
57 -33 -1 c-19 0 -41 -4 -49 -9z"/>
<path d="M5166 1987 c-22 -16 -26 -88 -7 -111 28 -34 141 -25 141 10 0 14 -97
114 -111 114 -3 0 -13 -6 -23 -13z"/>
<path d="M3978 1962 c-16 -2 -28 -8 -28 -13 0 -5 -6 -9 -12 -9 -7 0 -18 -11
-25 -25 -16 -36 12 -71 50 -61 28 7 57 50 57 85 0 24 -7 28 -42 23z"/>
<path d="M4580 2028 c-36 -39 -22 -168 19 -168 6 0 11 -4 11 -10 0 -5 7 -10
15 -10 25 0 65 23 65 37 0 7 5 13 10 13 6 0 10 26 10 58 0 71 -22 102 -75 102
-22 0 -41 -8 -55 -22z"/>
<path d="M6048 1939 c-20 -14 -28 -30 -28 -50 0 -26 3 -29 34 -29 19 0 42 7
50 16 9 8 16 31 16 50 0 29 -3 34 -22 34 -13 0 -35 -10 -50 -21z"/>
<path d="M7873 2035 c-46 -32 -41 -141 8 -176 26 -18 32 -19 60 -7 23 10 33
24 43 58 28 95 -42 174 -111 125z"/>
<path d="M8482 2033 c-57 -51 -49 -149 14 -179 31 -15 35 -15 63 5 32 23 48
78 36 131 -12 54 -73 77 -113 43z"/>
</g>
</svg>
